# xmcd CD database file
#
# Track frame offsets:
#	150
#	13155
#	26870
#	60965
#
# Disc length: 1165 seconds
#
# Revision: 1
# Processed by: cddbd v1.5.1PL0 Copyright (c) Steve Scherf et al.
# Submitted via: CDex 1.51
#
DISCID=2a048b04
DTITLE=gary moore - since i met you baby
DYEAR=1992
DGENRE=Blues
TTITLE0=since i met you baby
TTITLE1=don't start me talking
TTITLE2=once in a blue mood
TTITLE3=the hurt inside
EXTD=YEAR: 1992
EXTT0=
EXTT1=
EXTT2=
EXTT3=
PLAYORDER=
